<svg xmlns="http://www.w3.org/2000/svg" width="306.688" height="38.25" viewBox="0 0 306.688 38.25">
  <g id="Group_6053" data-name="Group 6053" transform="translate(-63.313 -886)">
    <path id="Icon_awesome-telegram" data-name="Icon awesome-telegram" d="M19.125.563A19.125,19.125,0,1,0,38.25,19.688,19.122,19.122,0,0,0,19.125.563Zm9.393,13.1L25.379,28.456c-.231,1.049-.856,1.3-1.727.81l-4.781-3.524-2.306,2.221a1.207,1.207,0,0,1-.964.47l.339-4.866,8.861-8c.386-.339-.085-.532-.594-.193L13.256,22.263,8.537,20.79c-1.026-.324-1.049-1.026.216-1.519l18.439-7.11c.856-.308,1.6.208,1.326,1.5Z" transform="translate(63.313 885.438)" fill="#fff"/>
    <circle id="Ellipse_468" data-name="Ellipse 468" cx="18" cy="18" r="18" transform="translate(119 886)" fill="#fff"/>
    <circle id="Ellipse_469" data-name="Ellipse 469" cx="18" cy="18" r="18" transform="translate(174 886)" fill="#fff"/>
    <circle id="Ellipse_470" data-name="Ellipse 470" cx="18" cy="18" r="18" transform="translate(228 886)" fill="#fff"/>
    <circle id="Ellipse_471" data-name="Ellipse 471" cx="18" cy="18" r="18" transform="translate(281 886)" fill="#fff"/>
    <circle id="Ellipse_472" data-name="Ellipse 472" cx="18" cy="18" r="18" transform="translate(334 886)" fill="#fff"/>
    <path id="Icon_awesome-twitter" data-name="Icon awesome-twitter" d="M17.874,7.413c.013.177.013.354.013.531A11.537,11.537,0,0,1,6.27,19.561,11.538,11.538,0,0,1,0,17.728a8.447,8.447,0,0,0,.986.051,8.177,8.177,0,0,0,5.069-1.744A4.09,4.09,0,0,1,2.237,13.2a5.149,5.149,0,0,0,.771.063,4.318,4.318,0,0,0,1.074-.139A4.084,4.084,0,0,1,.809,9.12V9.069a4.112,4.112,0,0,0,1.846.518A4.089,4.089,0,0,1,1.39,4.127,11.606,11.606,0,0,0,9.809,8.4a4.609,4.609,0,0,1-.1-.935A4.087,4.087,0,0,1,16.774,4.67a8.039,8.039,0,0,0,2.591-.986,4.072,4.072,0,0,1-1.8,2.25A8.185,8.185,0,0,0,19.922,5.3a8.777,8.777,0,0,1-2.048,2.111Z" transform="translate(127.039 894.148)" fill="#142435"/>
    <path id="Icon_metro-instagram" data-name="Icon metro-instagram" d="M18.063,1.928H5.655A3.093,3.093,0,0,0,2.571,5.012V17.421A3.093,3.093,0,0,0,5.655,20.5H18.063a3.093,3.093,0,0,0,3.084-3.084V5.012a3.093,3.093,0,0,0-3.084-3.084ZM8.517,10.055H15.2a3.538,3.538,0,1,1-6.683,0Zm10.308,0v6.965a1.164,1.164,0,0,1-1.161,1.161H6.054a1.164,1.164,0,0,1-1.161-1.161V10.055H6.709a5.279,5.279,0,1,0,10.3,0Zm0-4.065a.582.582,0,0,1-.581.581H17.084a.582.582,0,0,1-.581-.581V4.831a.582.582,0,0,1,.581-.581h1.161a.582.582,0,0,1,.581.581Z" transform="translate(180.143 893.205)" fill="#142435"/>
    <path id="Icon_awesome-discord" data-name="Icon awesome-discord" d="M11.357,9.293a1,1,0,1,1-1-1.086A1.042,1.042,0,0,1,11.357,9.293ZM6.789,8.207a1.09,1.09,0,0,0,0,2.172,1.042,1.042,0,0,0,1-1.086A1.036,1.036,0,0,0,6.789,8.207Zm10.33-6.192V19.564c-2.464-2.178-1.676-1.457-4.539-4.118l.518,1.81H2.005A2.01,2.01,0,0,1,0,15.24V2.015A2.01,2.01,0,0,1,2.005,0H15.113A2.01,2.01,0,0,1,17.118,2.015Zm-2.788,9.273a13.1,13.1,0,0,0-1.409-5.7,4.837,4.837,0,0,0-2.749-1.027l-.137.157a6.51,6.51,0,0,1,2.436,1.242,8.312,8.312,0,0,0-7.307-.284c-.362.166-.577.284-.577.284A6.6,6.6,0,0,1,7.16,4.676l-.1-.117A4.837,4.837,0,0,0,4.314,5.586a13.1,13.1,0,0,0-1.409,5.7,3.547,3.547,0,0,0,2.984,1.487s.362-.44.655-.812a3.042,3.042,0,0,1-1.712-1.154c.144.1.381.231.4.245a7.13,7.13,0,0,0,6.1.342,5.6,5.6,0,0,0,1.125-.577,3.087,3.087,0,0,1-1.771,1.164c.293.372.646.792.646.792A3.576,3.576,0,0,0,14.331,11.288Z" transform="translate(237.439 895.837)" fill="#142435"/>
    <path id="Icon_awesome-medium-m" data-name="Icon awesome-medium-m" d="M2.931,7.14a.637.637,0,0,0-.206-.533L1.2,4.773V4.5H5.932l3.655,8.015L12.8,4.5h4.508v.273l-1.3,1.248a.38.38,0,0,0-.145.364v9.172a.38.38,0,0,0,.145.364l1.271,1.248v.273h-6.4v-.273L12.2,15.891c.128-.128.128-.169.128-.364V8.115l-3.665,9.3h-.5l-4.262-9.3V14.35a.849.849,0,0,0,.236.715l1.713,2.077v.273H1v-.27l1.713-2.081a.822.822,0,0,0,.219-.715Z" transform="translate(289.848 893.029)" fill="#142435"/>
    <path id="Icon_awesome-linkedin-in" data-name="Icon awesome-linkedin-in" d="M3.654,16.327H.27V5.427H3.654ZM1.96,3.94A1.97,1.97,0,1,1,3.92,1.961,1.977,1.977,0,0,1,1.96,3.94ZM16.323,16.327H12.945V11.021c0-1.265-.026-2.886-1.76-2.886-1.76,0-2.029,1.374-2.029,2.8v5.4H5.775V5.427H9.021V6.913h.047a3.557,3.557,0,0,1,3.2-1.76c3.426,0,4.055,2.256,4.055,5.186v5.988Z" transform="translate(343.523 894.144)" fill="#142435"/>
  </g>
</svg>
