<svg width="90" height="90" viewBox="0 0 90 90" fill="none" xmlns="http://www.w3.org/2000/svg">
<g clipPath="url(#clip0_7128_8814)">
<path d="M54.2604 89.3333H20.9349C13.238 89.3333 6.97656 83.0718 6.97656 75.375V28.0911C6.97656 20.3943 13.238 14.1328 20.9349 14.1328H54.2604C61.9572 14.1328 68.2187 20.3943 68.2187 28.0911V75.375C68.2187 83.0718 61.9572 89.3333 54.2604 89.3333ZM20.9349 21.112C17.0868 21.112 13.9557 24.2431 13.9557 28.0911V75.375C13.9557 79.2231 17.0868 82.3541 20.9349 82.3541H54.2604C58.1085 82.3541 61.2396 79.2231 61.2396 75.375V28.0911C61.2396 24.2431 58.1085 21.112 54.2604 21.112H20.9349ZM82.1771 66.651V13.9583C82.1771 6.26148 75.9156 0 68.2187 0H29.4844C27.5569 0 25.9948 1.56213 25.9948 3.48958C25.9948 5.41703 27.5569 6.97917 29.4844 6.97917H68.2187C72.0668 6.97917 75.1979 10.1102 75.1979 13.9583V66.651C75.1979 68.5785 76.76 70.1406 78.6875 70.1406C80.6149 70.1406 82.1771 68.5785 82.1771 66.651Z" fill="white"/>
</g>
<defs>
<clipPath id="clip0_7128_8814">
<rect width="89.3333" height="89.3333" fill="white"/>
</clipPath>
</defs>
</svg>
